<svg width="207" height="49" viewBox="0 0 207 49" fill="none" xmlns="http://www.w3.org/2000/svg">
<path d="M41.4332 0.139999H42.4332V-0.860001H41.4332V0.139999ZM41.4332 49V50H42.4332V49H41.4332ZM31.6332 49H30.6332V50H31.6332V49ZM31.6332 28.21H32.6332V27.21H31.6332V28.21ZM10.7032 28.21V27.21H9.70324V28.21H10.7032ZM10.7032 49V50H11.7032V49H10.7032ZM0.903243 49H-0.0967574V50H0.903243V49ZM0.903243 0.139999V-0.860001H-0.0967574V0.139999H0.903243ZM10.7032 0.139999H11.7032V-0.860001H10.7032V0.139999ZM10.7032 20.23H9.70324V21.23H10.7032V20.23ZM31.6332 20.23V21.23H32.6332V20.23H31.6332ZM31.6332 0.139999V-0.860001H30.6332V0.139999H31.6332ZM40.4332 0.139999V49H42.4332V0.139999H40.4332ZM41.4332 48H31.6332V50H41.4332V48ZM32.6332 49V28.21H30.6332V49H32.6332ZM31.6332 27.21H10.7032V29.21H31.6332V27.21ZM9.70324 28.21V49H11.7032V28.21H9.70324ZM10.7032 48H0.903243V50H10.7032V48ZM1.90324 49V0.139999H-0.0967574V49H1.90324ZM0.903243 1.14H10.7032V-0.860001H0.903243V1.14ZM9.70324 0.139999V20.23H11.7032V0.139999H9.70324ZM10.7032 21.23H31.6332V19.23H10.7032V21.23ZM32.6332 20.23V0.139999H30.6332V20.23H32.6332ZM31.6332 1.14H41.4332V-0.860001H31.6332V1.14ZM81.039 39.69L81.9841 39.3631L81.7513 38.69H81.039V39.69ZM61.579 39.69V38.69H60.8668L60.634 39.3631L61.579 39.69ZM58.359 49V50H59.0713L59.3041 49.3269L58.359 49ZM48.069 49L47.1279 48.662L46.6474 50H48.069V49ZM65.639 0.0699958V-0.930004H64.9356L64.6979 -0.267961L65.639 0.0699958ZM77.049 0.0699958L77.9902 -0.267961L77.7525 -0.930004H77.049V0.0699958ZM94.619 49V50H96.0406L95.5602 48.662L94.619 49ZM84.259 49L83.314 49.3269L83.5468 50H84.259V49ZM78.379 31.85V32.85H79.783L79.3241 31.5231L78.379 31.85ZM71.309 11.41L72.2541 11.0831L71.309 8.35085L70.364 11.0831L71.309 11.41ZM64.239 31.85L63.294 31.5231L62.835 32.85H64.239V31.85ZM81.039 38.69H61.579V40.69H81.039V38.69ZM60.634 39.3631L57.414 48.6731L59.3041 49.3269L62.5241 40.0169L60.634 39.3631ZM58.359 48H48.069V50H58.359V48ZM49.0102 49.338L66.5802 0.407952L64.6979 -0.267961L47.1279 48.662L49.0102 49.338ZM65.639 1.07H77.049V-0.930004H65.639V1.07ZM76.1079 0.407952L93.6779 49.338L95.5602 48.662L77.9902 -0.267961L76.1079 0.407952ZM94.619 48H84.259V50H94.619V48ZM85.2041 48.6731L81.9841 39.3631L80.094 40.0169L83.314 49.3269L85.2041 48.6731ZM79.3241 31.5231L72.2541 11.0831L70.364 11.7369L77.434 32.1769L79.3241 31.5231ZM70.364 11.0831L63.294 31.5231L65.1841 32.1769L72.2541 11.7369L70.364 11.0831ZM64.239 32.85H78.379V30.85H64.239V32.85ZM110.986 41.23H109.986V42.23H110.986V41.23ZM127.086 41.23H128.086V40.23H127.086V41.23ZM127.086 49V50H128.086V49H127.086ZM101.186 49H100.186V50H101.186V49ZM101.186 0.139999V-0.860001H100.186V0.139999H101.186ZM110.986 0.139999H111.986V-0.860001H110.986V0.139999ZM110.986 42.23H127.086V40.23H110.986V42.23ZM126.086 41.23V49H128.086V41.23H126.086ZM127.086 48H101.186V50H127.086V48ZM102.186 49V0.139999H100.186V49H102.186ZM101.186 1.14H110.986V-0.860001H101.186V1.14ZM109.986 0.139999V41.23H111.986V0.139999H109.986ZM143.115 0.139999H144.115V-0.860001H143.115V0.139999ZM143.115 49V50H144.115V49H143.115ZM133.315 49H132.315V50H133.315V49ZM133.315 0.139999V-0.860001H132.315V0.139999H133.315ZM142.115 0.139999V49H144.115V0.139999H142.115ZM143.115 48H133.315V50H143.115V48ZM134.315 49V0.139999H132.315V49H134.315ZM133.315 1.14H143.115V-0.860001H133.315V1.14ZM206.068 0.139999H207.068V-0.860001H206.068V0.139999ZM206.068 49V50H207.068V49H206.068ZM196.268 49H195.268V50H196.268V49ZM196.268 17.22H197.268L195.343 16.8391L196.268 17.22ZM183.178 49V50H183.847L184.102 49.3809L183.178 49ZM175.758 49L174.834 49.3826L175.09 50H175.758V49ZM162.598 17.22L163.522 16.8374L161.598 17.22H162.598ZM162.598 49V50H163.598V49H162.598ZM152.798 49H151.798V50H152.798V49ZM152.798 0.139999V-0.860001H151.798V0.139999H152.798ZM163.928 0.139999L164.847 -0.253279L164.588 -0.860001H163.928V0.139999ZM179.468 36.47L178.548 36.8633L179.468 39.0127L180.387 36.8633L179.468 36.47ZM195.008 0.139999V-0.860001H194.348L194.088 -0.253279L195.008 0.139999ZM205.068 0.139999V49H207.068V0.139999H205.068ZM206.068 48H196.268V50H206.068V48ZM197.268 49V17.22H195.268V49H197.268ZM195.343 16.8391L182.253 48.6191L184.102 49.3809L197.192 17.6009L195.343 16.8391ZM183.178 48H175.758V50H183.178V48ZM176.682 48.6174L163.522 16.8374L161.674 17.6026L174.834 49.3826L176.682 48.6174ZM161.598 17.22V49H163.598V17.22H161.598ZM162.598 48H152.798V50H162.598V48ZM153.798 49V0.139999H151.798V49H153.798ZM152.798 1.14H163.928V-0.860001H152.798V1.14ZM163.008 0.533277L178.548 36.8633L180.387 36.0767L164.847 -0.253279L163.008 0.533277ZM180.387 36.8633L195.927 0.533277L194.088 -0.253279L178.548 36.0767L180.387 36.8633ZM195.008 1.14H206.068V-0.860001H195.008V1.14Z" fill="black"/>
</svg>
